<?xml version="1.0" standalone="no"?>
<!DOCTYPE svg PUBLIC "-//W3C//DTD SVG 20010904//EN"
 "http://www.w3.org/TR/2001/REC-SVG-20010904/DTD/svg10.dtd">
<svg version="1.0" xmlns="http://www.w3.org/2000/svg"
 width="512.000000pt" height="512.000000pt" viewBox="0 0 512.000000 512.000000"
 preserveAspectRatio="xMidYMid meet">

<g transform="translate(0.000000,512.000000) scale(0.100000,-0.100000)"
fill="#99775C" stroke="none">
<path d="M1410 4828 c-55 -38 -74 -72 -74 -131 0 -45 11 -73 76 -202 l76 -151
-61 -39 c-169 -109 -411 -338 -536 -505 -402 -541 -516 -1247 -306 -1886 243
-739 853 -1265 1631 -1405 146 -27 481 -32 634 -10 119 16 334 71 423 106 37
15 69 26 71 24 2 -2 38 -72 80 -156 88 -175 108 -195 195 -201 66 -4 111 20
145 77 46 79 62 39 -455 1076 -261 523 -480 964 -488 980 -7 17 -281 563 -609
1215 -663 1315 -613 1230 -717 1230 -38 0 -61 -6 -85 -22z m309 -946 l83 -168
-46 -72 c-55 -85 -100 -186 -128 -291 -28 -102 -31 -343 -5 -443 45 -182 126
-328 254 -460 l75 -77 -68 -35 c-221 -112 -427 -308 -561 -535 -53 -89 -122
-242 -137 -305 l-7 -29 -42 59 c-70 98 -103 154 -161 274 -200 417 -229 868
-85 1315 40 125 156 352 236 464 80 112 206 247 312 335 72 59 179 136 191
136 3 0 43 -76 89 -168z m686 -1380 c-7 -8 -121 40 -177 74 -187 112 -308 326
-308 544 0 66 19 171 40 225 12 29 18 17 230 -405 120 -239 217 -436 215 -438z
m93 -339 l84 -6 309 -619 c308 -616 309 -618 285 -628 -74 -28 -233 -72 -316
-87 -132 -25 -466 -24 -597 0 -270 51 -528 160 -737 313 l-78 56 7 52 c4 28
18 89 32 135 107 373 409 669 785 770 82 22 107 24 226 14z"/>
<path d="M2385 4633 c-73 -6 -249 -34 -304 -48 -130 -33 -178 -166 -96 -263
49 -59 89 -62 285 -26 146 27 447 25 602 -4 243 -46 477 -142 685 -284 150
-101 354 -305 452 -452 315 -474 392 -1015 220 -1551 -55 -172 -264 -547 -288
-519 -4 5 -20 43 -35 84 -89 249 -278 498 -495 654 -135 97 -198 106 -272 39
-61 -55 -73 -137 -31 -201 9 -14 55 -53 102 -88 269 -197 420 -459 464 -801
16 -125 32 -159 90 -187 42 -20 108 -21 144 -2 43 22 242 232 319 336 409 555
520 1251 303 1902 -258 775 -947 1323 -1769 1407 -96 10 -284 12 -376 4z"/>
<path d="M2400 4069 c-75 -13 -141 -47 -167 -88 -47 -71 -19 -177 59 -221 34
-19 49 -21 96 -16 156 18 231 18 307 1 352 -78 574 -434 485 -779 -30 -117
-81 -206 -177 -304 -88 -92 -100 -118 -90 -192 6 -50 33 -85 83 -110 83 -41
148 -16 259 102 351 373 354 944 5 1311 -193 204 -400 296 -675 303 -71 1
-155 -1 -185 -7z"/>
</g>
</svg>
