<?xml version="1.0" standalone="no"?>
<!DOCTYPE svg PUBLIC "-//W3C//DTD SVG 20010904//EN"
 "http://www.w3.org/TR/2001/REC-SVG-20010904/DTD/svg10.dtd">
<svg version="1.0" xmlns="http://www.w3.org/2000/svg"
 width="512.000000pt" height="512.000000pt" viewBox="0 0 512.000000 512.000000"
 preserveAspectRatio="xMidYMid meet">

<g transform="translate(0.000000,512.000000) scale(0.100000,-0.100000)"
fill="#99775C" stroke="none">
<path d="M874 4991 c-99 -24 -193 -102 -241 -199 l-28 -57 0 -1050 0 -1050 33
-67 c40 -81 110 -148 190 -180 l57 -23 613 -3 612 -3 0 -139 0 -140 -872 0
c-511 0 -897 -4 -932 -10 -120 -19 -215 -90 -268 -198 l-33 -67 -3 -685 c-3
-682 -3 -685 19 -754 28 -86 103 -172 187 -213 l57 -28 1045 0 1045 0 57 28
c73 36 139 101 175 175 28 57 28 59 31 280 l3 222 632 0 c605 0 633 1 663 19
45 27 61 79 39 124 -9 19 -27 39 -41 46 -18 8 -206 11 -659 11 l-634 0 -3 388
-3 387 -33 67 c-40 81 -111 149 -188 177 -30 12 -61 21 -69 21 -13 0 -15 38
-15 255 0 284 3 299 63 352 29 25 47 32 99 38 35 3 574 5 1198 3 l1135 -3 39
-24 c24 -15 45 -40 57 -65 18 -39 19 -80 19 -756 l0 -715 -23 -40 c-26 -48
-92 -85 -150 -85 -55 0 -97 -43 -97 -100 0 -78 67 -112 176 -90 118 24 211 98
262 208 l27 57 0 770 0 770 -26 55 c-37 77 -87 131 -157 168 -75 40 -153 52
-349 52 l-153 0 -2 913 -3 912 -34 63 c-40 74 -93 124 -171 161 l-55 26 -1183
3 -1183 2 -30 -29 c-31 -31 -39 -83 -19 -122 28 -51 -18 -49 1216 -49 l1146 0
38 -21 c21 -12 47 -38 59 -59 21 -38 21 -41 19 -683 l-3 -645 -245 175 c-135
96 -258 184 -275 194 -34 21 -76 24 -106 8 -11 -6 -150 -109 -309 -230 -159
-120 -291 -219 -293 -219 -3 0 -218 178 -479 395 -331 276 -482 397 -504 401
-18 3 -42 0 -55 -7 -13 -7 -260 -204 -549 -438 -289 -233 -544 -440 -567 -459
l-43 -34 0 754 0 755 23 33 c32 48 65 68 127 80 72 14 105 45 105 101 0 34 -6
46 -33 70 -34 30 -78 36 -148 20z m1715 -1596 l565 -470 -375 -6 c-212 -3
-387 -10 -404 -16 -95 -32 -185 -106 -224 -185 -12 -24 -27 -69 -33 -101 l-12
-58 -596 3 c-660 3 -632 0 -682 70 -21 30 -23 46 -26 159 l-4 127 599 485
c490 397 601 483 613 474 8 -7 269 -223 579 -482z m1366 -55 l274 -195 1 -112
0 -113 -379 0 -379 0 -157 131 c-131 110 -155 133 -144 145 8 7 118 92 244
188 197 149 233 173 248 163 9 -7 141 -100 292 -207z m-1618 -1482 c17 -10 42
-32 55 -50 l23 -33 3 -671 2 -670 -22 -34 c-13 -18 -36 -43 -51 -54 -28 -21
-29 -21 -1037 -21 -1003 0 -1009 0 -1036 21 -15 11 -37 33 -48 48 -21 27 -21
39 -24 692 -2 643 -2 665 17 702 20 40 55 69 100 83 14 4 467 7 1006 6 909 -2
982 -3 1012 -19z"/>
<path d="M988 1521 l-33 -29 -3 -371 c-3 -417 -2 -427 63 -458 29 -14 42 -15
65 -6 49 18 644 384 662 407 28 34 23 93 -9 125 -43 41 -647 361 -683 361 -19
0 -42 -11 -62 -29z m323 -322 c83 -45 149 -82 147 -84 -3 -2 -283 -172 -300
-182 -5 -2 -8 75 -8 171 0 97 3 176 6 176 3 0 73 -36 155 -81z"/>
<path d="M1358 4984 c-34 -18 -48 -43 -48 -84 0 -42 15 -67 52 -86 66 -34 143
12 143 88 0 33 -6 45 -33 69 -36 32 -72 36 -114 13z"/>
<path d="M2873 4563 c-146 -61 -233 -198 -220 -349 9 -121 86 -231 197 -283
46 -22 69 -26 145 -26 78 0 97 4 146 28 210 103 258 376 95 545 -66 70 -125
95 -231 99 -69 2 -100 -1 -132 -14z m187 -198 c43 -22 72 -69 72 -119 3 -148
-183 -200 -263 -74 -38 61 -14 151 51 192 32 20 102 20 140 1z"/>
<path d="M3805 2458 c-379 -62 -439 -70 -616 -76 -191 -7 -196 -8 -237 -35
-23 -15 -54 -46 -69 -69 -28 -41 -28 -44 -31 -221 -4 -215 3 -253 62 -312 52
-51 98 -65 220 -65 l96 0 0 -201 0 -201 29 -29 29 -29 180 0 c232 0 215 -12
283 203 28 89 55 166 59 170 3 4 107 -9 230 -28 124 -20 235 -33 251 -30 16 4
38 18 49 32 18 24 20 40 20 204 l0 178 35 7 c46 8 85 54 85 99 0 44 -35 84
-80 94 l-35 7 -5 163 -5 163 -28 24 c-20 17 -39 24 -65 23 -20 -1 -226 -32
-457 -71z m355 -428 c0 -154 -2 -280 -5 -280 -3 0 -162 25 -352 55 -191 30
-353 55 -360 55 -10 0 -13 35 -13 168 l0 169 178 28 c97 15 251 40 342 55 91
16 175 28 188 29 l22 1 0 -280z m-930 0 l0 -150 -90 0 -90 0 0 150 0 150 90 0
90 0 0 -150z m283 -381 c40 -5 77 -12 84 -14 8 -3 1 -36 -22 -107 l-34 -103
-55 -3 -56 -3 0 121 c0 66 3 120 6 120 3 0 38 -5 77 -11z"/>
<path d="M4253 1018 c-12 -6 -29 -26 -38 -45 -24 -50 -4 -101 48 -126 68 -34
137 10 137 88 0 72 -79 116 -147 83z"/>
</g>
</svg>
