<?xml version="1.0" standalone="no"?>
<!DOCTYPE svg PUBLIC "-//W3C//DTD SVG 20010904//EN"
 "http://www.w3.org/TR/2001/REC-SVG-20010904/DTD/svg10.dtd">
<svg version="1.0" xmlns="http://www.w3.org/2000/svg"
 width="512.000000pt" height="512.000000pt" viewBox="0 0 512.000000 512.000000"
 preserveAspectRatio="xMidYMid meet">

<g transform="translate(0.000000,512.000000) scale(0.100000,-0.100000)"
fill="#000000" stroke="none">
<path d="M765 5105 c-104 -39 -165 -132 -165 -252 l0 -73 -108 0 c-115 0 -194
-15 -264 -51 -58 -29 -140 -110 -171 -167 -60 -110 -57 -12 -57 -1832 0 -1795
-2 -1718 50 -1821 51 -99 167 -188 280 -213 56 -13 141 -16 468 -16 l399 0 85
-98 c279 -321 669 -523 1103 -572 538 -60 1094 159 1454 573 l84 97 401 0
c509 0 545 7 667 129 63 64 92 113 114 198 23 86 23 3360 0 3446 -21 81 -49
132 -106 192 -92 97 -196 135 -371 135 l-108 0 0 73 c0 58 -5 83 -26 125 -78
157 -290 189 -410 60 -50 -52 -67 -95 -72 -180 l-5 -78 -167 0 -167 0 -5 78
c-5 85 -22 128 -72 180 -121 129 -331 98 -410 -60 -21 -42 -26 -66 -26 -125
l0 -73 -169 0 -168 0 -6 75 c-10 118 -46 180 -136 233 -39 23 -57 27 -121 27
-64 0 -82 -4 -121 -27 -90 -53 -126 -115 -136 -233 l-6 -75 -168 0 -169 0 0
73 c0 58 -5 83 -26 125 -77 154 -275 188 -402 68 -53 -49 -75 -101 -80 -188
l-5 -78 -167 0 -167 0 -5 78 c-7 112 -53 188 -143 234 -51 27 -147 33 -200 13z
m146 -184 l29 -29 0 -192 c0 -193 -4 -220 -39 -247 -27 -21 -79 -15 -106 12
-25 24 -25 25 -25 227 1 211 3 222 45 246 33 19 65 13 96 -17z m832 17 c44
-23 46 -34 47 -246 0 -202 0 -203 -25 -227 -27 -27 -79 -33 -106 -12 -35 27
-39 54 -39 247 l0 192 29 29 c31 31 59 36 94 17z m872 -12 c33 -33 37 -68 33
-266 l-3 -172 -28 -24 c-16 -13 -41 -24 -57 -24 -16 0 -41 11 -57 24 l-28 24
-3 172 c-2 95 -1 188 3 207 9 47 46 83 85 83 19 0 40 -9 55 -24z m856 -5 l29
-29 0 -192 c0 -193 -4 -220 -39 -247 -27 -21 -79 -15 -106 12 -25 24 -25 25
-25 227 1 211 3 222 45 246 33 19 65 13 96 -17z m832 17 c44 -23 46 -34 47
-246 0 -202 0 -203 -25 -227 -27 -27 -79 -33 -106 -12 -35 27 -39 54 -39 247
l0 192 29 29 c31 31 59 36 94 17z m-3703 -400 c0 -160 103 -267 256 -268 151
0 254 115 254 284 l0 56 170 0 170 0 0 -58 c0 -167 104 -282 254 -282 153 1
256 108 256 268 l0 72 169 0 168 0 6 -72 c7 -98 30 -149 87 -201 101 -91 249
-90 344 1 52 50 77 109 83 198 l6 74 168 0 169 0 0 -72 c1 -160 103 -268 256
-268 151 0 254 115 254 284 l0 56 170 0 170 0 0 -58 c0 -167 104 -282 254
-282 153 0 255 108 256 268 l0 72 98 0 c122 0 189 -19 243 -67 74 -67 83 -96
87 -280 l4 -163 -2392 0 -2392 0 4 163 c3 143 6 167 25 202 56 104 139 144
301 145 l102 0 0 -72z m4348 -2038 c2 -1579 7 -1476 -63 -1558 -19 -22 -56
-51 -83 -64 -46 -23 -53 -23 -404 -26 -197 -2 -358 -1 -358 2 0 3 22 49 49
103 201 403 232 865 87 1297 -197 589 -705 1027 -1322 1137 -167 30 -421 30
-588 0 -1031 -185 -1654 -1234 -1321 -2228 19 -58 58 -151 85 -205 28 -55 50
-102 50 -104 0 -3 -161 -4 -357 -2 -352 3 -359 3 -405 26 -27 13 -63 42 -82
64 -70 82 -66 -22 -66 1553 0 782 3 1425 7 1428 3 4 1078 6 2387 5 l2381 -3 3
-1425z m-2076 711 c193 -42 380 -121 548 -232 131 -87 325 -281 413 -414 384
-581 342 -1320 -104 -1852 -218 -260 -525 -439 -879 -514 -142 -30 -418 -33
-560 -5 -420 82 -774 314 -1006 661 -347 521 -346 1182 3 1710 76 114 267 312
373 387 205 143 426 234 665 273 130 21 418 13 547 -14z"/>
<path d="M2324 3051 c-284 -52 -521 -177 -729 -385 -119 -120 -191 -219 -260
-361 -298 -611 -102 -1349 459 -1726 159 -107 306 -169 499 -211 135 -28 379
-31 511 -5 699 140 1164 743 1115 1448 -38 540 -410 1017 -924 1188 -150 49
-228 62 -405 67 -130 3 -186 0 -266 -15z m402 -162 c120 -16 239 -54 361 -114
315 -155 540 -431 630 -772 31 -120 42 -344 23 -475 -41 -283 -203 -566 -425
-745 -328 -263 -740 -338 -1135 -208 -407 135 -715 492 -796 923 -25 132 -15
374 19 505 69 261 226 497 438 657 145 109 370 204 544 229 87 12 252 13 341
0z"/>
<path d="M2915 2451 c-16 -10 -37 -27 -47 -37 -9 -10 -127 -188 -263 -394
-136 -206 -249 -377 -251 -379 -3 -3 -42 31 -87 76 -96 95 -110 103 -174 103
-67 -1 -103 -24 -190 -121 -75 -83 -112 -145 -113 -184 0 -71 18 -96 233 -313
117 -118 230 -223 251 -234 92 -47 219 -30 295 40 42 39 709 1044 743 1121 24
52 18 113 -15 163 -13 18 -71 66 -130 106 -102 69 -110 72 -165 72 -38 0 -67
-6 -87 -19z m193 -219 l52 -35 -16 -26 c-317 -491 -688 -1040 -709 -1049 -61
-28 -68 -23 -277 186 l-198 197 66 73 67 73 117 -115 c98 -97 122 -116 148
-116 17 0 38 3 47 6 9 4 147 202 306 441 l290 435 27 -18 c15 -10 51 -33 80
-52z"/>
</g>
</svg>
