<?xml version="1.0" standalone="no"?>
<!DOCTYPE svg PUBLIC "-//W3C//DTD SVG 20010904//EN"
 "http://www.w3.org/TR/2001/REC-SVG-20010904/DTD/svg10.dtd">
<svg version="1.0" xmlns="http://www.w3.org/2000/svg"
 width="512.000000pt" height="512.000000pt" viewBox="0 0 512.000000 512.000000"
 preserveAspectRatio="xMidYMid meet">

<g transform="translate(0.000000,512.000000) scale(0.100000,-0.100000)"
fill="#99775C" stroke="none">
<path d="M2377 5095 c-159 -30 -303 -91 -432 -183 -76 -53 -1785 -1758 -1831
-1826 -36 -52 -78 -149 -95 -216 -12 -45 -14 -256 -14 -1185 0 -1047 1 -1135
18 -1195 61 -226 235 -404 457 -467 62 -17 156 -18 2080 -18 1924 0 2018 1
2080 18 168 48 331 180 403 328 77 155 72 71 72 1334 0 916 -3 1140 -14 1185
-22 93 -85 210 -154 290 -36 41 -433 442 -883 890 -614 611 -839 829 -897 869
-104 71 -227 127 -345 158 -124 32 -327 40 -445 18z m383 -433 c148 -48 136
-38 1038 -937 486 -483 855 -859 870 -885 l27 -45 0 -1110 c0 -1224 5 -1133
-61 -1199 -64 -63 -45 -61 -551 -64 l-462 -3 -4 508 c-3 478 -4 513 -24 588
-84 315 -292 569 -578 706 -293 140 -617 140 -910 0 -286 -137 -494 -391 -578
-706 -20 -75 -21 -110 -24 -588 l-4 -508 -462 3 -462 3 -43 25 c-52 29 -99 97
-107 154 -3 22 -5 525 -3 1116 l3 1075 27 45 c32 54 1672 1694 1738 1737 129
87 230 115 390 109 81 -2 134 -10 180 -24z m-20 -2778 c161 -47 323 -181 392
-324 67 -138 68 -145 68 -669 l0 -471 -640 0 -640 0 0 471 c0 524 1 531 68
669 48 99 167 220 267 272 67 35 146 62 210 72 56 8 220 -3 275 -20z"/>
</g>
</svg>
