<?xml version="1.0" standalone="no"?>
<!DOCTYPE svg PUBLIC "-//W3C//DTD SVG 20010904//EN"
 "http://www.w3.org/TR/2001/REC-SVG-20010904/DTD/svg10.dtd">
<svg version="1.0" xmlns="http://www.w3.org/2000/svg"
 width="512.000000pt" height="512.000000pt" viewBox="0 0 512.000000 512.000000"
 preserveAspectRatio="xMidYMid meet">

<g transform="translate(0.000000,512.000000) scale(0.100000,-0.100000)"
fill="#99775C" stroke="none">
<path d="M2404 4756 c-141 -32 -262 -98 -363 -196 -370 -362 -276 -970 186
-1205 64 -32 203 -75 245 -75 17 0 18 -30 18 -804 0 -758 1 -805 18 -810 9 -2
41 -8 70 -11 l52 -7 0 816 c0 786 1 816 18 816 11 0 52 9 93 19 370 95 615
457 559 826 -30 199 -131 373 -283 489 -141 106 -254 146 -432 152 -80 2 -141
-1 -181 -10z m265 -544 c168 -97 306 -181 308 -187 2 -9 -602 -365 -620 -365
-4 0 -7 164 -7 365 0 201 3 365 8 364 4 0 144 -80 311 -177z"/>
<path d="M1020 3460 c-275 -33 -527 -237 -615 -499 -145 -427 117 -884 557
-975 194 -40 402 1 566 113 l63 42 32 -27 c18 -15 87 -80 155 -145 l122 -118
0 -169 c0 -93 3 -171 6 -175 4 -3 38 10 76 29 l69 35 -3 170 -3 171 -175 167
-174 168 41 64 c223 343 129 800 -213 1028 -146 98 -330 142 -504 121z m8
-425 c20 -9 47 -25 59 -37 l22 -21 30 26 c67 56 178 61 252 13 155 -103 124
-325 -73 -527 -68 -70 -178 -149 -207 -149 -26 0 -127 71 -193 136 -106 104
-173 224 -185 334 -16 162 147 286 295 225z"/>
<path d="M3915 3459 c-86 -10 -213 -53 -292 -100 -32 -19 -96 -72 -144 -119
-72 -71 -93 -101 -132 -180 -66 -134 -82 -200 -81 -345 0 -164 35 -283 120
-412 l38 -56 -174 -168 -175 -167 -3 -194 -2 -193 69 -41 c39 -23 72 -39 75
-36 3 3 6 95 6 204 l0 199 123 118 c67 65 136 130 154 145 l32 27 61 -42 c163
-111 374 -153 568 -113 156 32 282 104 395 224 259 275 272 689 31 985 -156
191 -417 294 -669 264z m98 -283 c62 -26 71 -46 77 -169 l5 -112 81 -6 c168
-13 268 -111 268 -264 0 -59 -4 -79 -29 -124 -16 -29 -45 -66 -64 -82 -66 -54
-99 -59 -388 -59 l-263 0 2 263 3 262 75 5 75 5 5 112 c5 106 6 113 34 142 25
26 38 33 79 40 4 0 22 -5 40 -13z"/>
<path d="M3975 1576 c-31 -14 -752 -433 -858 -499 -96 -59 -110 -59 -502 -28
-336 27 -349 29 -367 51 -26 32 -20 78 12 102 25 18 32 18 365 -9 187 -14 353
-23 369 -19 46 11 106 77 106 115 0 46 -15 68 -68 102 -62 39 -190 79 -394
123 -257 55 -280 52 -543 -71 -88 -42 -191 -88 -230 -104 -67 -26 -242 -59
-318 -59 -72 0 -67 26 -67 -367 l0 -355 93 9 c147 13 444 6 682 -16 121 -11
270 -23 332 -27 108 -7 113 -6 210 27 111 38 388 175 603 298 286 165 735 434
758 455 36 32 52 70 52 121 0 57 -19 96 -66 131 -42 33 -122 42 -169 20z"/>
<path d="M1080 880 l0 -530 130 0 130 0 0 530 0 530 -130 0 -130 0 0 -530z"/>
</g>
</svg>
