<svg xmlns="http://www.w3.org/2000/svg" version="1.1" xmlns:xlink="http://www.w3.org/1999/xlink" xmlns:svgjs="http://svgjs.dev/svgjs" width="1500" height="496" viewBox="0 0 1500 496">
  <g transform="matrix(1,0,0,1,-0.9090909090909918,-1.7383856000645892)">
    <svg viewBox="0 0 396 131" data-background-color="#f9f9f9" preserveAspectRatio="xMidYMid meet" height="496" width="1500" xmlns="http://www.w3.org/2000/svg" xmlns:xlink="http://www.w3.org/1999/xlink">
      <g id="tight-bounds" transform="matrix(1,0,0,1,0.2400000000000091,0.45913006775899134)">
        <svg viewBox="0 0 395.52 130.08173986940085" height="130.08173986940085" width="395.52">
          <g>
          <svg viewBox="0 0 395.52 130.08173986940085" height="130.08173986940085" width="395.52">
            <g>
            <svg viewBox="0 0 395.52 130.08173986940085" height="130.08173986940085" width="395.52">
              <g id="textblocktransform">
                <svg viewBox="0 0 395.52 130.08173986940085" height="130.08173986940085" width="395.52" id="textblock">
                  <g>
                  <svg viewBox="0 0 395.52 83.75454607122668" height="83.75454607122668" width="395.52">
                    <g transform="matrix(1,0,0,1,0,0)">
                      <svg width="395.52" viewBox="2.45 -36.45999999577501 177.98000000000002 37.45999999577501" height="83.75454607122668" data-palette-color="#99775c">
                        <g class="wordmark-text-0" data-fill-palette-color="primary" id="text-0">
                          <path d="M17.95 1L17.95 1Q13.75 1 10.23-0.78 6.7-2.55 4.58-6.23 2.45-9.9 2.45-15.55L2.45-15.55Q2.45-20.65 4.67-24.48 6.9-28.3 10.85-30.43 14.8-32.55 19.9-32.55L19.9-32.55Q21.65-32.55 23.5-32.15 25.35-31.75 26.95-30.93 28.55-30.1 29.53-28.75 30.5-27.4 30.5-25.5L30.5-25.5Q30.5-23.45 29.25-21.78 28-20.1 25.75-20.1L25.75-20.1Q24.8-20.1 23.78-20.58 22.75-21.05 22.7-21.9L22.7-21.9Q22.7-22.05 23.33-22.45 23.95-22.85 24.58-23.68 25.2-24.5 25.2-25.85L25.2-25.85Q25.2-28 23.55-29.28 21.9-30.55 19.3-30.55L19.3-30.55Q16.25-30.55 13.75-28.85 11.25-27.15 9.78-23.88 8.3-20.6 8.3-15.85L8.3-15.85Q8.3-11.35 9.73-8.13 11.15-4.9 13.73-3.18 16.3-1.45 19.7-1.45L19.7-1.45Q21.35-1.45 22.55-1.65 23.75-1.85 25.1-2.25L25.1-2.25 25.1-7.35Q25.1-8.75 25-9.58 24.9-10.4 24.3-10.8 23.7-11.2 22.2-11.2L22.2-11.2Q21.7-11.2 21.28-11.3 20.85-11.4 20.8-12.25L20.8-12.25Q20.8-12.65 21.08-13 21.35-13.35 21.85-13.35L21.85-13.35Q23.45-13.3 24.55-13.25 25.65-13.2 27.35-13.2L27.35-13.2Q29.05-13.2 30.13-13.25 31.2-13.3 32.75-13.35L32.75-13.35Q33.25-13.35 33.48-13 33.7-12.65 33.7-12.25L33.7-12.25Q33.65-11.4 33.25-11.3 32.85-11.2 32.3-11.2L32.3-11.2Q30.9-11.2 30.33-10.78 29.75-10.35 29.63-9.5 29.5-8.65 29.5-7.35L29.5-7.35 29.5-1.45Q27.55-0.55 25.88 0 24.2 0.55 22.33 0.78 20.45 1 17.95 1ZM37.05 0.15L37.05 0.15Q36.7 0.15 36.47-0.18 36.25-0.5 36.25-0.85L36.25-0.85Q36.35-1.6 36.65-1.68 36.95-1.75 37.45-1.75L37.45-1.75Q38.85-1.75 39.35-2.23 39.85-2.7 39.92-3.5 40-4.3 40-5.15L40-5.15 40-16.6Q40-17.5 39.92-18.28 39.85-19.05 39.35-19.53 38.85-20 37.45-20L37.45-20Q37-20 36.62-20.13 36.25-20.25 36.25-21L36.25-21Q36.25-21.75 37.05-21.9L37.05-21.9Q39.35-22.25 40.57-22.6 41.8-22.95 42.42-23.2 43.05-23.45 43.55-23.5L43.55-23.5Q43.95-23.55 44.22-23.35 44.5-23.15 44.5-22.55L44.5-22.55 44.5-19.45 44.65-19.45Q46.35-21.1 48.15-22.18 49.95-23.25 51.45-23.25L51.45-23.25Q53.2-23.25 54.12-21.95 55.05-20.65 55.05-19.2L55.05-19.2Q55.05-17.95 54.25-16.78 53.45-15.6 51.85-15.6L51.85-15.6Q51.05-15.6 50.57-15.93 50.1-16.25 50.05-16.4L50.05-16.4Q50.05-16.5 50.52-17 51-17.5 51-18.25L51-18.25Q51-19.15 50.52-19.7 50.05-20.25 49.25-20.25L49.25-20.25Q48.4-20.25 47.07-19.4 45.75-18.55 44.55-17.35L44.55-17.35 44.55-5.15Q44.55-4.3 44.62-3.5 44.7-2.7 45.22-2.23 45.75-1.75 47.15-1.75L47.15-1.75Q47.6-1.75 47.92-1.68 48.25-1.6 48.3-0.85L48.3-0.85Q48.3-0.5 48.1-0.18 47.9 0.15 47.5 0.15L47.5 0.15Q46.05 0.05 44.82 0.03 43.6 0 42.25 0L42.25 0Q40.9 0 39.7 0.03 38.5 0.05 37.05 0.15ZM64.25 0.6L64.25 0.6Q61.2 0.6 59.37-1.15 57.55-2.9 57.55-5.35L57.55-5.35Q57.55-7.9 58.87-9.35 60.2-10.8 62.37-11.5 64.55-12.2 67.12-12.45 69.7-12.7 72.15-12.85L72.15-12.85 72.15-16.8Q72.15-19.15 70.97-20.48 69.8-21.8 67-21.8L67-21.8Q65.59-21.8 64.37-20.9 63.15-20 63.15-18.3L63.15-18.3Q63.15-17.5 63.55-16.95 63.95-16.4 64.34-16.1 64.75-15.8 64.75-15.7L64.75-15.7Q64.75-15.5 64.17-14.98 63.6-14.45 62.6-14.45L62.6-14.45Q61.05-14.45 60.2-15.6 59.35-16.75 59.35-18.15L59.35-18.15Q59.35-20.05 60.52-21.15 61.7-22.25 63.55-22.75 65.4-23.25 67.3-23.25L67.3-23.25Q69.55-23.25 71.67-22.7 73.8-22.15 75.17-20.6 76.55-19.05 76.55-15.95L76.55-15.95 76.55-4.3Q76.59-3.8 76.8-3.1 77-2.4 77.57-1.88 78.15-1.35 79.15-1.35L79.15-1.35Q79.5-1.35 79.7-1.23 79.9-1.1 79.9-0.55L79.9-0.55Q79.9-0.1 79.4 0.15 78.9 0.4 78.25 0.5 77.59 0.6 77.15 0.6L77.15 0.6Q75.3 0.6 73.84-0.48 72.4-1.55 72.15-3.45L72.15-3.45Q71.05-1.45 68.87-0.43 66.7 0.6 64.25 0.6ZM65.84-2.1L65.84-2.1Q67.55-2.1 68.97-2.95 70.4-3.8 71.27-5.28 72.15-6.75 72.15-8.55L72.15-8.55 72.15-11.4Q67-11.05 64.8-9.75 62.6-8.45 62.6-5.5L62.6-5.5Q62.6-2.1 65.84-2.1ZM95.54 0.5L93.44 0.5Q92.19-2.25 90.94-5.5 89.69-8.75 88.49-11.85 87.29-14.95 86.19-17.25L86.19-17.25Q85.39-19.1 84.64-19.88 83.89-20.65 82.39-20.85L82.39-20.85Q81.74-20.95 81.52-21.05 81.29-21.15 81.24-21.8L81.24-21.8Q81.19-22.65 81.72-22.73 82.24-22.8 82.99-22.85L82.99-22.85Q86.09-23 87.84-21.95 89.59-20.9 90.69-18.4L90.69-18.4Q91.39-16.85 92.27-14.55 93.14-12.25 94.09-9.9 95.04-7.55 95.94-5.65L95.94-5.65 96.09-5.65 101.04-18.75Q101.54-20.2 101.09-20.55 100.64-20.9 99.14-20.9L99.14-20.9Q98.69-20.9 98.39-20.98 98.09-21.05 98.04-21.8L98.04-21.8Q98.04-22.1 98.22-22.45 98.39-22.8 98.74-22.8L98.74-22.8Q100.19-22.75 101.24-22.7 102.29-22.65 103.59-22.65L103.59-22.65Q104.49-22.65 105.04-22.68 105.59-22.7 106.19-22.73 106.79-22.75 107.74-22.8L107.74-22.8Q108.14-22.8 108.32-22.45 108.49-22.1 108.49-21.8L108.49-21.8Q108.44-21.05 108.12-20.98 107.79-20.9 107.39-20.9L107.39-20.9Q105.74-20.9 104.77-20.3 103.79-19.7 103.09-17.95L103.09-17.95Q103.09-17.95 102.57-16.63 102.04-15.3 101.19-13.2 100.34-11.1 99.39-8.75 98.44-6.4 97.57-4.3 96.69-2.2 96.14-0.85 95.59 0.5 95.54 0.5L95.54 0.5ZM110.89 0.15L110.89 0.15Q110.54 0.15 110.32-0.18 110.09-0.5 110.09-0.85L110.09-0.85Q110.19-1.6 110.49-1.68 110.79-1.75 111.29-1.75L111.29-1.75Q112.69-1.75 113.19-2.23 113.69-2.7 113.77-3.5 113.84-4.3 113.84-5.15L113.84-5.15 113.84-16.6Q113.84-17.5 113.77-18.28 113.69-19.05 113.19-19.53 112.69-20 111.29-20L111.29-20Q110.84-20 110.47-20.13 110.09-20.25 110.09-21L110.09-21Q110.09-21.75 110.89-21.9L110.89-21.9Q113.19-22.25 114.42-22.6 115.64-22.95 116.29-23.2 116.94-23.45 117.44-23.5L117.44-23.5Q117.84-23.55 118.12-23.35 118.39-23.15 118.39-22.55L118.39-22.55 118.39-5.15Q118.39-4.3 118.47-3.5 118.54-2.7 119.07-2.23 119.59-1.75 120.99-1.75L120.99-1.75Q121.44-1.75 121.77-1.68 122.09-1.6 122.14-0.85L122.14-0.85Q122.14-0.5 121.94-0.18 121.74 0.15 121.34 0.15L121.34 0.15Q119.89 0.05 118.67 0.03 117.44 0 116.09 0L116.09 0Q114.74 0 113.54 0.03 112.34 0.05 110.89 0.15ZM115.84-29.05L115.84-29.05Q114.44-29.05 113.49-29.93 112.54-30.8 112.54-32.1L112.54-32.1Q112.54-33.25 113.69-34.15 114.84-35.05 116.29-35.05L116.29-35.05Q117.54-35.05 118.34-34.18 119.14-33.3 119.14-31.95L119.14-31.95Q119.14-30.75 118.19-29.9 117.24-29.05 115.84-29.05ZM134.04 0.85L134.04 0.85Q132.54 0.85 131.19 0.1 129.84-0.65 128.96-2.2 128.09-3.75 128.09-6.1L128.09-6.1 128.09-20.8 125.19-20.7Q124.84-20.7 124.66-20.98 124.49-21.25 124.49-21.6L124.49-21.6Q124.49-22.6 125.19-22.75L125.19-22.75Q127.04-23.1 127.99-23.93 128.94-24.75 129.46-25.9 129.99-27.05 130.44-28.4L130.44-28.4Q130.59-28.8 130.89-28.93 131.19-29.05 131.54-29.05L131.54-29.05Q131.84-29.05 132.21-28.9 132.59-28.75 132.59-28.35L132.59-28.35 132.24-22.65 138.09-23Q138.54-23.05 138.69-22.75 138.84-22.45 138.84-22.05L138.84-22.05Q138.84-21.55 138.66-21.05 138.49-20.55 138.24-20.55L138.24-20.55 132.64-20.7 132.64-5.5Q132.64-4.05 133.26-2.85 133.89-1.65 135.54-1.65L135.54-1.65Q136.09-1.65 136.79-1.75 137.49-1.85 138.29-2.2L138.29-2.2Q138.49-2.3 138.69-2.38 138.89-2.45 139.09-2.45L139.09-2.45Q139.49-2.45 139.69-2.13 139.89-1.8 140.04-1.45L140.04-1.45Q140.19-1 139.79-0.75L139.79-0.75Q138.24 0.25 136.94 0.55 135.64 0.85 134.04 0.85ZM150.59 0.6L150.59 0.6Q147.53 0.6 145.71-1.15 143.88-2.9 143.88-5.35L143.88-5.35Q143.88-7.9 145.21-9.35 146.53-10.8 148.71-11.5 150.88-12.2 153.46-12.45 156.03-12.7 158.49-12.85L158.49-12.85 158.49-16.8Q158.49-19.15 157.31-20.48 156.13-21.8 153.34-21.8L153.34-21.8Q151.94-21.8 150.71-20.9 149.49-20 149.49-18.3L149.49-18.3Q149.49-17.5 149.88-16.95 150.28-16.4 150.69-16.1 151.09-15.8 151.09-15.7L151.09-15.7Q151.09-15.5 150.51-14.98 149.94-14.45 148.94-14.45L148.94-14.45Q147.38-14.45 146.53-15.6 145.69-16.75 145.69-18.15L145.69-18.15Q145.69-20.05 146.86-21.15 148.03-22.25 149.88-22.75 151.74-23.25 153.63-23.25L153.63-23.25Q155.88-23.25 158.01-22.7 160.13-22.15 161.51-20.6 162.88-19.05 162.88-15.95L162.88-15.95 162.88-4.3Q162.94-3.8 163.13-3.1 163.34-2.4 163.91-1.88 164.49-1.35 165.49-1.35L165.49-1.35Q165.84-1.35 166.03-1.23 166.24-1.1 166.24-0.55L166.24-0.55Q166.24-0.1 165.74 0.15 165.24 0.4 164.59 0.5 163.94 0.6 163.49 0.6L163.49 0.6Q161.63 0.6 160.19-0.48 158.74-1.55 158.49-3.45L158.49-3.45Q157.38-1.45 155.21-0.43 153.03 0.6 150.59 0.6ZM152.19-2.1L152.19-2.1Q153.88-2.1 155.31-2.95 156.74-3.8 157.61-5.28 158.49-6.75 158.49-8.55L158.49-8.55 158.49-11.4Q153.34-11.05 151.13-9.75 148.94-8.45 148.94-5.5L148.94-5.5Q148.94-2.1 152.19-2.1ZM169.18 0.15L169.18 0.15Q168.83 0.15 168.61-0.18 168.38-0.5 168.38-0.85L168.38-0.85Q168.43-1.6 168.76-1.68 169.08-1.75 169.53-1.75L169.53-1.75Q170.93-1.75 171.46-2.23 171.98-2.7 172.06-3.5 172.13-4.3 172.13-5.15L172.13-5.15 172.13-29.55Q172.13-30.45 172.06-31.23 171.98-32 171.48-32.48 170.98-32.95 169.58-32.95L169.58-32.95Q169.13-32.95 168.76-33.08 168.38-33.2 168.38-33.95L168.38-33.95Q168.38-34.7 169.18-34.85L169.18-34.85Q171.48-35.2 172.71-35.55 173.93-35.9 174.58-36.15 175.23-36.4 175.73-36.45L175.73-36.45Q176.13-36.5 176.41-36.3 176.68-36.1 176.68-35.5L176.68-35.5 176.68-5.15Q176.68-4.3 176.76-3.5 176.83-2.7 177.36-2.23 177.88-1.75 179.28-1.75L179.28-1.75Q179.73-1.75 180.06-1.68 180.38-1.6 180.43-0.85L180.43-0.85Q180.43-0.5 180.23-0.18 180.03 0.15 179.63 0.15L179.63 0.15Q178.18 0.05 176.96 0.03 175.73 0 174.38 0L174.38 0Q173.03 0 171.83 0.03 170.63 0.05 169.18 0.15Z" fill="#ffff" data-fill-palette-color="primary">
                          </path>
                        </g>
                      </svg>
                    </g>
                  </svg>
                </g>
              </svg>
            </g>
          </svg>
        </g>
      </svg>
    </g>
    <defs>
    </defs>
  </svg>
  <rect width="395.52" height="130.08173986940085" fill="none" stroke="none" visibility="hidden">
  </rect>
</g>
</svg>
</g>
</svg>