<?xml version="1.0" standalone="no"?>
<!DOCTYPE svg PUBLIC "-//W3C//DTD SVG 20010904//EN"
 "http://www.w3.org/TR/2001/REC-SVG-20010904/DTD/svg10.dtd">
<svg version="1.0" xmlns="http://www.w3.org/2000/svg"
 width="512.000000pt" height="512.000000pt" viewBox="0 0 512.000000 512.000000"
 preserveAspectRatio="xMidYMid meet">

<g transform="translate(0.000000,512.000000) scale(0.100000,-0.100000)"
fill="#99775C" stroke="none">
<path d="M4230 4484 c-69 -40 -129 -75 -135 -77 -5 -2 14 -52 43 -111 241
-487 241 -1065 1 -1551 -28 -58 -50 -107 -48 -109 2 -1 64 -37 137 -79 l132
-76 14 22 c38 58 121 247 160 368 141 427 141 871 0 1299 -42 126 -151 371
-170 382 -5 3 -65 -28 -134 -68z"/>
<path d="M2410 4306 c-143 -31 -260 -87 -368 -178 -95 -81 -182 -200 -222
-305 l-18 -49 411 -490 c227 -270 425 -506 440 -524 l28 -33 62 16 c207 51
373 168 487 344 89 136 125 259 125 433 0 174 -36 297 -125 433 -112 173 -271
287 -480 344 -78 21 -260 26 -340 9z"/>
<path d="M3708 4089 c-76 -38 -138 -72 -138 -75 0 -4 15 -45 34 -93 102 -256
98 -585 -10 -830 -13 -29 -24 -57 -24 -62 0 -5 63 -41 140 -79 l141 -71 25 58
c126 283 156 620 83 923 -21 84 -94 286 -107 294 -4 2 -69 -27 -144 -65z"/>
<path d="M1115 3841 c-50 -22 -95 -91 -95 -144 0 -13 5 -38 11 -55 6 -17 244
-306 529 -643 285 -338 517 -615 516 -617 -2 -2 -68 -11 -147 -22 -316 -41
-670 -135 -754 -202 -57 -45 -68 -128 -39 -299 79 -458 431 -807 891 -884 84
-14 168 -16 578 -12 448 3 485 5 560 24 44 12 82 18 85 14 3 -4 63 -75 133
-159 107 -125 136 -154 173 -168 104 -39 203 25 211 138 3 40 -1 60 -15 83
-30 48 -2451 2908 -2479 2929 -29 22 -124 32 -158 17z"/>
<path d="M2980 2375 c0 -13 802 -960 813 -960 19 0 104 151 138 245 44 121 62
220 63 337 1 87 -2 105 -19 130 -43 60 -256 137 -531 192 -201 40 -464 72
-464 56z"/>
</g>
</svg>
