<?xml version="1.0" standalone="no"?>
<!DOCTYPE svg PUBLIC "-//W3C//DTD SVG 20010904//EN"
 "http://www.w3.org/TR/2001/REC-SVG-20010904/DTD/svg10.dtd">
<svg version="1.0" xmlns="http://www.w3.org/2000/svg"
 width="512.000000pt" height="512.000000pt" viewBox="0 0 512.000000 512.000000"
 preserveAspectRatio="xMidYMid meet">

<g transform="translate(0.000000,512.000000) scale(0.100000,-0.100000)"
fill="#99775C" stroke="none">
<path d="M2356 4469 c-374 -39 -737 -195 -1031 -441 -743 -622 -902 -1711
-368 -2523 435 -661 1229 -986 2007 -821 61 13 154 38 206 55 99 33 320 135
370 171 78 55 107 180 63 265 -40 77 -103 115 -189 115 -49 0 -73 -8 -178 -60
-134 -66 -261 -110 -393 -137 -123 -25 -442 -25 -564 0 -465 94 -854 392
-1059 812 -202 411 -202 899 0 1310 251 514 766 835 1340 835 246 0 448 -48
676 -160 105 -52 130 -60 178 -60 122 0 210 89 210 211 -1 65 -35 134 -84 169
-54 38 -274 139 -380 174 -253 82 -541 113 -804 85z"/>
<path d="M3965 3393 c-107 -56 -153 -177 -106 -278 11 -24 79 -100 165 -185
80 -80 146 -148 146 -152 0 -5 -375 -8 -833 -8 l-834 0 -44 -23 c-68 -36 -103
-93 -107 -175 -4 -83 21 -138 87 -186 l43 -31 844 -3 c464 -1 844 -6 844 -10
0 -4 -66 -72 -146 -152 -154 -153 -183 -196 -184 -268 -1 -154 166 -259 305
-192 26 13 139 118 316 297 300 304 327 339 350 466 10 53 10 81 0 134 -23
127 -50 162 -351 467 -180 183 -289 285 -315 297 -49 23 -139 24 -180 2z"/>
</g>
</svg>
