<?xml version="1.0" standalone="no"?>
<!DOCTYPE svg PUBLIC "-//W3C//DTD SVG 20010904//EN"
 "http://www.w3.org/TR/2001/REC-SVG-20010904/DTD/svg10.dtd">
<svg version="1.0" xmlns="http://www.w3.org/2000/svg"
 width="512.000000pt" height="512.000000pt" viewBox="0 0 512.000000 512.000000"
 preserveAspectRatio="xMidYMid meet">

<g transform="translate(0.000000,512.000000) scale(0.100000,-0.100000)"
fill="#99775C" stroke="none">
<path d="M458 4774 c-161 -38 -318 -164 -392 -312 -165 -327 -1 -720 349 -840
l80 -27 1215 0 1215 0 73 27 c105 38 175 83 248 161 109 115 164 252 164 412
0 270 -184 508 -445 575 -76 19 -110 20 -1264 19 -975 -1 -1196 -3 -1243 -15z"/>
<path d="M452 3140 c-109 -29 -187 -74 -272 -160 -87 -86 -131 -163 -160 -276
-53 -205 6 -412 159 -564 87 -87 164 -131 277 -160 76 -20 118 -20 2098 -20
2239 0 2092 -4 2236 66 103 51 213 161 264 264 87 179 85 379 -6 553 -48 92
-165 205 -258 251 -144 70 3 66 -2240 65 -1961 0 -2027 -1 -2098 -19z"/>
<path d="M485 1515 c-189 -41 -336 -152 -419 -318 -87 -173 -85 -376 6 -550
47 -89 165 -205 256 -251 127 -64 161 -68 556 -64 350 4 351 4 418 30 100 38
173 85 238 154 112 120 165 253 164 414 -1 164 -59 303 -174 420 -78 79 -194
142 -305 165 -94 20 -651 20 -740 0z"/>
</g>
</svg>
