<?xml version="1.0" standalone="no"?>
<!DOCTYPE svg PUBLIC "-//W3C//DTD SVG 20010904//EN"
 "http://www.w3.org/TR/2001/REC-SVG-20010904/DTD/svg10.dtd">
<svg version="1.0" xmlns="http://www.w3.org/2000/svg"
 width="512.000000pt" height="512.000000pt" viewBox="0 0 512.000000 512.000000"
 preserveAspectRatio="xMidYMid meet">

<g transform="translate(0.000000,512.000000) scale(0.100000,-0.100000)"
fill="#99775C" stroke="none">
<path d="M345 5106 c-84 -21 -147 -57 -211 -121 -65 -65 -105 -136 -123 -223
-16 -76 -16 -4329 0 -4404 37 -172 175 -310 347 -347 75 -16 4328 -16 4404 0
170 36 311 178 347 347 16 76 16 4329 0 4404 -37 172 -176 311 -347 347 -81
17 -4349 14 -4417 -3z m4395 -306 c64 -33 80 -76 80 -215 l0 -115 -2260 0
-2260 0 0 118 c1 136 13 170 76 208 l39 24 2143 0 c2128 0 2143 0 2182 -20z
m80 -2505 c0 -1860 0 -1876 -20 -1915 -13 -26 -34 -47 -60 -60 -39 -20 -54
-20 -2181 -20 l-2141 0 -40 22 c-24 14 -48 38 -59 60 -18 36 -19 91 -19 1913
l0 1875 2260 0 2260 0 0 -1875z"/>
<path d="M968 3809 c-23 -12 -46 -35 -58 -59 -20 -39 -20 -57 -20 -1190 0
-1134 0 -1151 20 -1190 13 -26 34 -47 60 -60 39 -20 55 -20 1590 -20 1535 0
1551 0 1590 20 26 13 47 34 60 60 20 39 20 56 20 1190 0 1134 0 1151 -20 1190
-13 26 -34 47 -60 60 -39 20 -55 20 -1592 20 -1526 -1 -1554 -1 -1590 -21z
m2962 -686 c0 -348 -2 -405 -14 -393 -8 8 -95 107 -195 220 -100 113 -196 213
-214 223 -36 19 -83 22 -124 6 -15 -5 -209 -191 -430 -411 l-401 -401 -271
237 c-149 130 -283 243 -298 251 -37 20 -87 19 -126 -2 -28 -14 -216 -181
-564 -501 l-103 -94 0 636 0 636 1370 0 1370 0 0 -407z m-243 -586 l242 -272
1 -337 0 -338 -1370 0 -1370 0 0 133 1 132 363 330 c200 182 367 329 370 328
4 -1 128 -107 275 -236 148 -130 282 -242 299 -251 41 -21 85 -20 130 3 20 11
210 193 422 405 211 212 386 383 389 380 3 -3 115 -128 248 -277z"/>
<path d="M968 1009 c-67 -35 -96 -124 -62 -192 22 -44 181 -204 226 -228 80
-41 127 -23 251 100 128 125 150 178 107 261 -23 45 -80 80 -130 80 -39 0 -85
-23 -127 -63 l-33 -31 -32 31 c-69 65 -133 78 -200 42z"/>
<path d="M1928 929 c-43 -22 -78 -81 -78 -129 0 -50 35 -107 80 -130 35 -18
59 -20 230 -20 171 0 195 2 230 20 45 23 80 80 80 130 0 50 -35 107 -80 130
-35 18 -58 20 -232 20 -172 -1 -197 -3 -230 -21z"/>
<path d="M2888 929 c-43 -22 -78 -81 -78 -129 0 -50 35 -107 80 -130 35 -18
59 -20 230 -20 171 0 195 2 230 20 45 23 80 80 80 130 0 50 -35 107 -80 130
-35 18 -58 20 -232 20 -172 -1 -197 -3 -230 -21z"/>
</g>
</svg>
