<?xml version="1.0" standalone="no"?>
<!DOCTYPE svg PUBLIC "-//W3C//DTD SVG 20010904//EN"
 "http://www.w3.org/TR/2001/REC-SVG-20010904/DTD/svg10.dtd">
<svg version="1.0" xmlns="http://www.w3.org/2000/svg"
 width="512.000000pt" height="512.000000pt" viewBox="0 0 512.000000 512.000000"
 preserveAspectRatio="xMidYMid meet">

<g transform="translate(0.000000,512.000000) scale(0.100000,-0.100000)"
fill="#99775C" stroke="none">
<path d="M1423 4537 l-1003 -431 0 -906 c0 -944 1 -977 45 -1197 54 -268 189
-591 341 -818 361 -540 913 -904 1545 -1020 83 -15 88 -15 208 9 125 26 290
72 304 85 4 4 1 27 -8 50 -11 31 -15 85 -15 190 l0 147 -117 -39 c-65 -22
-157 -48 -205 -58 l-88 -17 -112 25 c-813 183 -1432 890 -1518 1732 -6 61 -10
386 -10 797 0 746 -1 733 51 781 13 12 366 169 784 348 610 263 769 327 805
328 38 0 169 -53 800 -323 415 -178 767 -332 781 -341 59 -41 59 -37 59 -624
l0 -537 23 -6 c71 -18 201 -97 277 -168 l80 -76 0 818 0 819 -997 427 c-549
235 -1005 429 -1013 432 -8 2 -466 -190 -1017 -427z"/>
<path d="M1685 4066 l-730 -313 0 -724 c0 -797 1 -815 65 -1044 59 -209 143
-376 312 -619 4 -6 53 38 108 97 130 137 244 223 395 297 212 104 347 134 595
135 196 0 261 -9 423 -62 l107 -35 49 21 c28 11 57 21 65 21 14 0 16 18 16
123 0 149 21 244 80 362 75 152 196 273 345 345 104 51 178 70 298 77 l97 6 0
501 0 501 -733 313 c-402 172 -739 312 -747 312 -8 0 -343 -142 -745 -314z
m883 -711 c46 -9 115 -34 170 -61 156 -76 280 -216 338 -383 104 -298 -9 -628
-275 -799 -437 -283 -1022 18 -1049 539 -17 335 212 632 542 704 83 18 181 18
274 0z"/>
<path d="M3702 2570 c-108 -29 -187 -75 -273 -160 -61 -60 -85 -92 -117 -160
-50 -106 -62 -163 -62 -300 l0 -110 135 0 135 0 0 63 c0 204 73 333 219 388
75 28 185 24 253 -9 62 -31 121 -89 155 -154 24 -47 28 -66 31 -170 l4 -118
139 0 139 0 0 98 c0 120 -20 215 -63 307 -69 143 -199 260 -350 312 -101 35
-244 41 -345 13z"/>
<path d="M3058 1664 c-59 -32 -58 -17 -58 -684 0 -671 -2 -653 60 -685 26 -13
124 -15 806 -13 l776 3 29 33 29 32 0 631 0 631 -34 34 -34 34 -773 0 c-665
-1 -778 -3 -801 -16z m896 -289 c72 -35 125 -137 111 -220 -7 -48 -48 -120
-75 -135 -19 -10 -20 -22 -20 -180 0 -95 -5 -181 -11 -197 -35 -94 -151 -110
-200 -29 -17 27 -19 52 -19 209 l0 178 -31 27 c-87 72 -92 220 -11 306 62 66
168 83 256 41z"/>
</g>
</svg>
