<?xml version="1.0" standalone="no"?>
<!DOCTYPE svg PUBLIC "-//W3C//DTD SVG 20010904//EN"
 "http://www.w3.org/TR/2001/REC-SVG-20010904/DTD/svg10.dtd">
<svg version="1.0" xmlns="http://www.w3.org/2000/svg"
 width="512.000000pt" height="512.000000pt" viewBox="0 0 512.000000 512.000000"
 preserveAspectRatio="xMidYMid meet">

<g transform="translate(0.000000,512.000000) scale(0.100000,-0.100000)"
fill="#99775C" stroke="none">
<path d="M1204 4896 c-122 -30 -219 -136 -240 -263 l-6 -40 -152 -6 c-220 -7
-316 -42 -435 -160 -65 -64 -109 -139 -138 -232 -17 -57 -18 -131 -18 -1530
l0 -1470 22 -70 c55 -176 200 -313 380 -360 48 -13 187 -15 910 -15 l852 0 26
22 c50 45 49 132 -2 165 -25 17 -89 18 -883 23 l-855 5 -57 28 c-62 30 -115
83 -150 149 l-23 43 -3 1168 -2 1167 1760 0 1760 0 0 -350 c0 -381 2 -394 55
-418 44 -20 82 -14 117 17 l33 29 0 684 0 683 -25 65 c-65 166 -178 275 -345
332 -47 16 -95 22 -217 26 l-158 5 0 28 c0 52 -40 137 -86 184 -97 100 -237
128 -359 72 -102 -47 -162 -124 -186 -237 l-11 -50 -583 0 -582 0 -7 42 c-21
133 -123 240 -254 267 -63 13 -72 13 -138 -3z m135 -222 c39 -28 51 -73 51
-194 0 -157 -28 -210 -110 -210 -82 0 -110 53 -110 210 0 157 28 210 110 210
20 0 46 -7 59 -16z m1804 5 c47 -21 57 -56 57 -199 0 -105 -3 -138 -17 -160
-34 -58 -116 -68 -164 -21 l-29 29 0 152 0 152 29 29 c32 31 79 38 124 18z
m-2179 -350 c18 -114 105 -220 208 -255 191 -65 392 56 424 255 l7 41 582 0
583 0 11 -50 c24 -114 85 -190 191 -239 183 -84 415 45 438 245 l5 44 138 0
c115 0 147 -3 193 -21 70 -26 139 -92 174 -167 26 -56 27 -62 27 -252 l0 -195
-1757 -3 -1758 -2 0 192 c0 238 7 265 95 353 83 83 115 93 291 94 l141 1 7
-41z"/>
<path d="M880 3184 c-45 -20 -87 -59 -111 -106 -17 -33 -19 -60 -19 -248 0
-167 3 -218 15 -248 20 -47 50 -78 100 -105 37 -21 54 -22 255 -22 211 0 216
0 260 25 24 14 58 44 75 68 l30 44 3 223 c3 206 2 227 -17 262 -25 49 -66 88
-113 107 -53 23 -427 22 -478 0z m400 -354 l0 -160 -160 0 -160 0 0 160 0 160
160 0 160 0 0 -160z"/>
<path d="M1929 3172 c-39 -20 -62 -41 -84 -77 l-30 -48 -4 -186 c-4 -237 4
-277 69 -341 64 -65 104 -73 341 -69 l186 4 48 30 c36 22 57 45 77 84 28 53
28 54 28 248 0 226 -7 260 -65 318 -58 58 -92 65 -318 65 -194 0 -195 0 -248
-28z m419 -344 l3 -158 -161 0 -160 0 0 160 0 161 158 -3 157 -3 3 -157z"/>
<path d="M3022 3189 c-46 -14 -118 -88 -131 -135 -6 -22 -11 -119 -11 -217 0
-202 7 -228 67 -253 44 -19 83 -11 114 22 23 24 24 33 29 202 l5 177 158 3
157 3 0 -66 c0 -110 37 -165 111 -165 81 0 114 63 107 202 -7 115 -37 168
-117 210 l-53 28 -202 -1 c-110 0 -216 -5 -234 -10z"/>
<path d="M3548 2545 c-237 -39 -474 -160 -643 -330 -409 -408 -458 -1063 -114
-1525 245 -328 649 -510 1046 -471 418 42 767 282 948 655 217 445 137 962
-203 1318 -166 174 -364 287 -592 339 -114 26 -327 33 -442 14z m382 -220
c304 -64 560 -273 681 -555 62 -146 74 -205 74 -385 0 -124 -4 -175 -18 -225
-98 -350 -331 -592 -672 -696 -82 -25 -104 -28 -255 -28 -127 -1 -179 3 -227
16 -111 31 -221 78 -299 129 -449 294 -575 890 -280 1333 219 329 613 491 996
411z"/>
<path d="M3694 2016 c-64 -28 -64 -29 -64 -359 0 -239 3 -303 14 -325 16 -29
205 -219 246 -246 68 -45 160 7 160 90 0 41 -24 74 -119 169 l-91 90 0 253 c0
283 -4 302 -65 328 -41 17 -42 17 -81 0z"/>
<path d="M860 2107 c-25 -13 -58 -43 -75 -66 l-30 -43 0 -237 0 -238 27 -39
c15 -21 44 -50 65 -64 36 -25 37 -25 273 -25 236 0 237 0 273 25 21 14 50 43
65 64 l27 39 0 237 0 237 -27 39 c-15 21 -44 50 -65 64 -36 25 -40 25 -262 28
-221 3 -227 3 -271 -21z m420 -347 l0 -160 -160 0 -160 0 0 160 0 160 160 0
160 0 0 -160z"/>
<path d="M1940 2114 c-46 -20 -77 -50 -103 -99 -21 -37 -22 -54 -22 -255 0
-201 1 -218 22 -255 52 -97 97 -115 287 -115 159 0 189 7 212 51 22 44 17 85
-15 121 l-29 33 -131 3 -131 4 0 159 0 160 196 -2 196 -1 28 27 c38 36 46 75
25 119 -29 60 -55 66 -292 66 -163 -1 -216 -4 -243 -16z"/>
</g>
</svg>
