<?xml version="1.0" standalone="no"?>
<!DOCTYPE svg PUBLIC "-//W3C//DTD SVG 20010904//EN"
 "http://www.w3.org/TR/2001/REC-SVG-20010904/DTD/svg10.dtd">
<svg version="1.0" xmlns="http://www.w3.org/2000/svg"
 width="512.000000pt" height="512.000000pt" viewBox="0 0 512.000000 512.000000"
 preserveAspectRatio="xMidYMid meet">

<g transform="translate(0.000000,512.000000) scale(0.100000,-0.100000)"
fill="#99775C" stroke="none">
<path d="M3393 5104 c-54 -20 -128 -85 -155 -138 -17 -32 -23 -66 -27 -149
l-6 -109 -56 -24 c-65 -27 -152 -77 -223 -128 l-49 -35 -51 30 c-99 58 -116
64 -207 64 -135 0 -173 -30 -291 -229 -24 -41 -31 -45 -47 -36 -11 5 -62 22
-113 36 -78 22 -121 27 -263 31 -148 4 -184 2 -275 -17 -283 -58 -534 -217
-711 -449 -68 -90 -153 -266 -183 -381 -102 -385 -2 -793 263 -1085 66 -72
157 -151 224 -192 31 -20 57 -39 57 -42 0 -4 -31 -17 -69 -29 -38 -13 -118
-47 -178 -76 -439 -216 -757 -620 -863 -1096 -31 -141 -40 -276 -40 -621 0
-369 2 -384 63 -412 32 -16 163 -17 1677 -17 l1642 0 35 35 34 34 -4 433 c-3
398 -6 441 -25 530 -88 393 -319 748 -632 971 -109 77 -312 182 -418 216 l-73
24 45 26 c160 94 332 275 415 438 l21 43 65 -44 c35 -24 102 -60 149 -82 l84
-39 4 -105 c3 -94 7 -111 33 -159 31 -56 88 -106 148 -128 20 -7 102 -12 217
-12 174 -1 188 1 235 23 56 26 117 87 141 143 10 23 18 78 21 139 l6 101 74
33 c41 18 111 57 156 88 45 30 87 56 93 59 6 2 42 -14 80 -36 90 -52 155 -66
229 -51 90 19 141 61 207 170 119 196 132 228 132 305 0 117 -52 194 -181 267
-70 40 -72 42 -65 72 9 40 9 272 0 312 -7 31 -5 33 71 77 115 67 161 126 176
228 10 67 -8 119 -92 264 -86 150 -119 188 -188 221 -96 45 -196 30 -321 -49
l-41 -25 -64 45 c-35 25 -110 67 -165 94 l-101 49 -5 98 c-7 147 -50 227 -152
280 -50 26 -56 27 -236 29 -145 2 -194 -1 -227 -13z m383 -225 c16 -18 20 -42
24 -159 6 -162 12 -175 108 -204 80 -25 195 -87 276 -149 95 -72 126 -89 158
-83 15 3 74 32 132 66 104 60 120 66 151 54 22 -9 155 -236 155 -266 0 -32
-15 -44 -127 -107 -51 -29 -102 -64 -113 -79 -24 -29 -24 -29 0 -204 11 -81
11 -115 0 -195 -24 -180 -24 -177 2 -206 12 -14 64 -49 113 -77 111 -63 125
-76 125 -110 0 -24 -102 -212 -138 -252 -25 -29 -58 -21 -170 42 -140 78 -157
78 -246 6 -104 -86 -212 -145 -337 -185 -20 -6 -47 -23 -60 -37 -23 -24 -24
-34 -27 -165 -5 -183 -1 -179 -187 -179 -185 0 -182 -3 -187 174 -4 167 -10
179 -119 217 -149 52 -325 162 -315 197 3 9 9 44 15 77 60 359 -40 705 -284
981 -52 59 -177 167 -222 192 -14 9 -11 19 28 88 63 112 70 113 206 36 60 -33
121 -64 135 -67 35 -9 81 14 158 80 66 56 202 129 298 160 82 26 92 50 92 208
0 173 -7 167 188 167 139 0 150 -1 168 -21z m-1744 -683 c297 -57 543 -246
678 -519 75 -153 93 -231 94 -412 0 -126 -3 -164 -22 -234 -123 -457 -506
-740 -972 -718 -137 7 -239 31 -356 86 -452 212 -664 724 -494 1194 110 303
386 538 709 602 89 18 273 18 363 1z m212 -2125 c283 -58 499 -174 708 -381
243 -240 378 -528 408 -870 5 -63 10 -224 10 -357 l0 -243 -1515 0 -1515 0 0
248 c0 136 5 297 10 357 33 352 173 642 428 886 230 221 498 343 842 383 19 2
145 3 280 1 198 -3 264 -8 344 -24z"/>
<path d="M3485 4226 c-98 -23 -166 -53 -237 -106 -241 -178 -307 -513 -153
-776 41 -70 139 -165 216 -207 120 -67 281 -93 411 -66 79 16 206 81 269 138
150 134 226 359 185 551 -46 218 -205 392 -416 454 -78 23 -203 28 -275 12z
m240 -223 c64 -22 141 -80 179 -136 52 -76 68 -130 69 -224 1 -74 -2 -87 -36
-156 -114 -230 -406 -288 -591 -117 -225 208 -123 589 174 649 54 11 149 4
205 -16z"/>
</g>
</svg>
